<?xml version="1.0" standalone="no"?>
<!DOCTYPE svg PUBLIC "-//W3C//DTD SVG 20010904//EN"
 "http://www.w3.org/TR/2001/REC-SVG-20010904/DTD/svg10.dtd">
<svg version="1.0" xmlns="http://www.w3.org/2000/svg"
 width="150.000000pt" height="75.000000pt" viewBox="0 0 776.000000 230.000000"
 preserveAspectRatio="xMidYMid meet">
<g transform="translate(0.000000,230.000000) scale(0.100000,-0.100000)"
fill="#000000" stroke="none">
<path d="M870 1823 c-178 -20 -351 -112 -456 -241 -218 -268 -211 -697 16
-955 178 -202 504 -279 784 -186 150 50 312 193 383 337 l38 76 3 173 3 173
-370 0 -371 0 0 -125 0 -125 216 -2 215 -3 -26 -50 c-34 -64 -98 -130 -151
-156 -96 -46 -241 -44 -349 5 -144 65 -216 213 -202 414 14 200 138 333 325
349 123 10 246 -36 289 -108 l17 -29 194 0 193 0 -6 23 c-3 12 -24 58 -45 102
-44 92 -125 180 -213 233 -129 78 -316 114 -487 95z"/>
<path d="M3295 1816 c-128 -30 -242 -88 -333 -170 l-39 -36 -73 25 c-458 156
-536 -32 -166 -401 66 -67 166 -157 221 -200 407 -321 932 -582 1185 -588 149
-3 193 69 125 204 -24 48 -104 154 -110 148 -2 -2 9 -30 25 -62 35 -68 37 -87
12 -109 -19 -18 -91 -23 -151 -11 l-31 6 25 19 c43 34 105 142 137 239 29 88
32 106 32 230 1 147 -10 199 -66 318 -79 168 -252 314 -442 374 -82 25 -269
33 -351 14z m-437 -197 l63 -21 -24 -27 c-13 -14 -34 -41 -46 -59 l-23 -32 48
-68 c165 -231 680 -619 986 -742 32 -13 56 -25 54 -27 -7 -7 -178 63 -275 111
-659 332 -1261 924 -906 892 33 -3 88 -15 123 -27z"/>
<path d="M1790 1110 l0 -700 395 0 395 0 0 130 0 130 -220 0 -220 0 0 570 0
570 -175 0 -175 0 0 -700z"/>
<path d="M4310 1110 l0 -700 173 2 172 3 5 403 5 402 151 -402 151 -403 139 0
139 0 155 414 155 414 3 -416 2 -417 170 0 170 0 0 700 0 700 -203 0 -203 0
-194 -481 c-112 -279 -196 -475 -200 -467 -4 7 -92 223 -196 481 l-188 467
-203 0 -203 0 0 -700z"/>
<path d="M6050 1110 l0 -700 170 0 170 0 0 700 0 700 -170 0 -170 0 0 -700z
m249 538 l46 -3 -36 -25 -37 -24 14 -39 c20 -57 18 -60 -25 -31 l-40 26 -37
-26 c-21 -14 -39 -24 -41 -22 -2 1 4 22 12 46 14 40 14 44 -2 56 -62 44 -62
43 -11 44 45 0 47 1 59 38 19 59 22 60 38 10 14 -46 15 -47 60 -50z"/>
<path d="M6540 1110 l0 -700 395 0 395 0 0 130 0 130 -220 0 -220 0 0 570 0
570 -175 0 -175 0 0 -700z"/>
<path d="M2734 1044 c30 -258 174 -464 401 -574 195 -95 422 -98 618 -8 l68
32 -103 36 c-291 104 -620 287 -887 493 l-104 80 7 -59z"/>
</g>
</svg>
